<svg width="43" height="39" viewBox="0 0 43 39" fill="none" xmlns="http://www.w3.org/2000/svg">
<path d="M30.5533 0.579987C28.3261 0.579987 26.1734 1.13976 24.2516 2.19585C24.9483 2.91236 25.5706 3.69604 26.1108 4.53196C27.4885 3.83784 29.0033 3.47213 30.5533 3.47213C35.8216 3.47213 39.947 7.37559 39.947 12.3613C39.947 18.362 35.7981 22.1983 24.7135 32.4607L24.0168 33.1063C23.4727 33.6101 22.8738 34.0654 22.2437 34.4572C21.3904 34.9872 20.3532 35.1252 19.3981 34.8379C17.7151 34.3304 16.3882 33.8825 16.0751 33.778C15.2297 32.2517 14.9322 26.4787 14.8852 24.15C20.8307 23.0976 25.1283 18.2127 25.1283 12.4732C25.1283 10.6745 24.7056 8.94294 23.8719 7.31588L23.8171 7.21512C23.8054 7.19273 23.7936 7.16661 23.7819 7.14048C23.6684 6.92777 23.5471 6.71506 23.4179 6.50981L23.4218 6.50608L23.3318 6.368C22.7094 5.40147 21.5626 3.97219 19.6369 2.6586C17.5429 1.29649 15.0966 0.579987 12.5642 0.579987H12.4468C5.46405 0.579987 0 5.75226 0 12.3575C0 19.1755 4.97479 24.2806 15.7933 34.0617L15.8207 34.0841C16.9127 35.073 18.0634 36.1067 19.2768 37.1964L20.2005 38.0286C20.5528 38.3458 21.0147 38.5212 21.5 38.5212C21.9893 38.5212 22.4511 38.3458 22.8034 38.0286L23.7271 37.1964C36.9606 25.2994 43 19.8696 43 12.3575C42.9961 5.75226 37.532 0.579987 30.5533 0.579987ZM12.8029 21.6721C12.2706 21.9781 11.9223 22.5155 11.8714 23.1014L11.8362 23.5492C11.8244 23.7544 11.8127 24.0381 11.8596 25.0456L12.0045 26.5122C6.19206 20.922 3.04906 16.9663 3.04906 12.3575C3.04906 12.3463 3.04906 12.3389 3.04906 12.3277L3.05689 12.3314L3.06472 12.1075C3.26825 7.29722 7.40934 3.50198 12.4937 3.47213C15.4058 3.48706 18.1104 4.7484 20.1105 7.02853C20.1222 7.03973 20.134 7.04346 20.134 7.04346C21.4021 8.62574 22.0715 10.5028 22.0715 12.4695C22.0715 17.0297 18.4588 20.8698 13.6679 21.3997C13.347 21.4333 13.0573 21.5266 12.8029 21.6721Z" fill="#EC9876"/>
</svg>
