<svg width="48" height="43" viewBox="0 0 48 43" fill="none" xmlns="http://www.w3.org/2000/svg">
<path fill-rule="evenodd" clip-rule="evenodd" d="M24.6456 1.97829L24.0391 2.3088C21.5219 0.787927 18.6391 0 15.6876 0H15.5784C7.11682 0 0 6.32665 0 14.8646C0 19.1702 1.64732 22.7639 4.4196 26.3128C7.09016 29.7315 11.0383 33.3969 16.0212 37.8645L16.0954 37.931L16.1198 37.9507C17.1193 38.848 18.1698 39.7837 19.2688 40.7625L19.2716 40.765L20.127 41.5292C21.2077 42.4943 22.5929 43 24 43C25.4065 43 26.7936 42.4963 27.8774 41.5285L28.9812 40.5429C34.9235 35.2454 39.5819 31.0925 42.7101 27.383C45.9879 23.496 48 19.6252 48 14.8646L48 14.8622C47.9949 6.32745 40.881 0 32.4216 0C29.6791 0 27.0187 0.68505 24.6456 1.97829Z" fill="white"/>
<path d="M32.4216 4C30.3499 4 28.3474 4.51638 26.5596 5.49061C27.2077 6.15157 27.7866 6.8745 28.2891 7.64562C29.5707 7.00531 30.9798 6.66795 32.4216 6.66795C37.3224 6.66795 41.16 10.2688 41.16 14.868C41.16 20.4036 37.3006 23.9425 26.9893 33.4094L26.3412 34.0049C25.8351 34.4697 25.278 34.8896 24.6918 35.2511C23.8981 35.7399 22.9332 35.8673 22.0448 35.6022C20.4792 35.1341 19.2449 34.721 18.9536 34.6246C18.1671 33.2166 17.8904 27.891 17.8467 25.7429C23.3774 24.7721 27.3752 20.2659 27.3752 14.9713C27.3752 13.312 26.982 11.7147 26.2064 10.2137L26.1555 10.1208C26.1445 10.1001 26.1336 10.076 26.1227 10.0519C26.0171 9.85571 25.9042 9.65949 25.7841 9.47015L25.7877 9.46671L25.704 9.33933C25.1251 8.44772 24.0583 7.12924 22.2669 5.91748C20.319 4.66096 18.0433 4 15.6876 4H15.5784C9.08283 4 4 8.77132 4 14.8646C4 21.154 8.62771 25.8634 18.6914 34.8862L18.7169 34.9069C19.7328 35.8191 20.8032 36.7727 21.9319 37.7779L22.7912 38.5456C23.1189 38.8382 23.5485 39 24 39C24.4551 39 24.8848 38.8382 25.2125 38.5456L26.0717 37.7779C38.3819 26.8032 44 21.7943 44 14.8646C43.9964 8.77132 38.9135 4 32.4216 4ZM15.9097 23.4571C15.4145 23.7394 15.0905 24.2351 15.0431 24.7755L15.0104 25.1886C14.9995 25.378 14.9885 25.6396 15.0322 26.5691L15.1669 27.922C9.76006 22.7651 6.83634 19.1161 6.83634 14.8646C6.83634 14.8542 6.83634 14.8473 6.83634 14.837L6.84362 14.8405L6.8509 14.6339C7.04023 10.1965 10.8924 6.69549 15.6221 6.66795C18.331 6.68172 20.8469 7.84528 22.7074 9.94866C22.7184 9.95898 22.7293 9.96243 22.7293 9.96243C23.909 11.4221 24.5316 13.1536 24.5316 14.9678C24.5316 19.1746 21.1709 22.7169 16.7144 23.2058C16.4158 23.2367 16.1464 23.3228 15.9097 23.4571Z" fill="#212020"/>
</svg>
